<svg xmlns="http://www.w3.org/2000/svg" viewBox="0 0 51 38" width="51" height="38">
	<style>
		tspan { white-space:pre }
		.shp0 { fill: #000000 } 
	</style>
	<path id="Shape 5" class="shp0" d="M25,0c13.81,0 25,19 25,19c0,0 -11.19,19 -25,19c-13.81,0 -25,-19 -25,-19c0,0 11.19,-19 25,-19zM25,2c-10.77,0 -20.15,13.19 -22.64,17c2.49,3.81 11.89,17 22.64,17c10.74,0 20.15,-13.19 22.63,-17c-2.49,-3.8 -11.89,-17 -22.63,-17zM36,19c0,6.08 -4.92,11 -11,11c-6.08,0 -11,-4.92 -11,-11c0,-6.07 4.92,-11 11,-11c6.08,0 11,4.93 11,11zM25,10c-4.97,0 -9,4.03 -9,9c0,4.97 4.03,9 9,9c4.97,0 9,-4.03 9,-9c0,-4.97 -4.03,-9 -9,-9z" />
</svg>